<mxfile host="65bd71144e">
    <diagram id="eoj9MSnaxErYWUOsbj-o" name="Страница 1">
        <mxGraphModel dx="1148" dy="183" grid="0" gridSize="10" guides="1" tooltips="1" connect="1" arrows="1" fold="1" page="0" pageScale="1" pageWidth="827" pageHeight="1169" math="0" shadow="0">
            <root>
                <mxCell id="0"/>
                <mxCell id="1" parent="0"/>
                <mxCell id="13" value="" style="edgeStyle=orthogonalEdgeStyle;rounded=0;orthogonalLoop=1;jettySize=auto;html=1;" edge="1" parent="1" source="PYiMBZbeEy-rtbewGdzI-4" target="12">
                    <mxGeometry relative="1" as="geometry"/>
                </mxCell>
                <mxCell id="PYiMBZbeEy-rtbewGdzI-4" value="index.js" style="rounded=0;whiteSpace=wrap;html=1;" parent="1" vertex="1">
                    <mxGeometry x="185" y="473" width="120" height="60" as="geometry"/>
                </mxCell>
                <mxCell id="PYiMBZbeEy-rtbewGdzI-21" value="конфиг" style="shape=umlFrame;whiteSpace=wrap;html=1;" parent="1" vertex="1">
                    <mxGeometry x="507" y="471" width="300" height="922" as="geometry"/>
                </mxCell>
                <mxCell id="3" value="" style="group" vertex="1" connectable="0" parent="1">
                    <mxGeometry x="547" y="520" width="220" height="157" as="geometry"/>
                </mxCell>
                <mxCell id="PYiMBZbeEy-rtbewGdzI-22" value="selectors" style="shape=umlFrame;whiteSpace=wrap;html=1;width=74;height=31;" parent="3" vertex="1">
                    <mxGeometry width="220" height="157" as="geometry"/>
                </mxCell>
                <mxCell id="2" value="" style="group" vertex="1" connectable="0" parent="3">
                    <mxGeometry x="50" y="49" width="140" height="80" as="geometry"/>
                </mxCell>
                <mxCell id="PYiMBZbeEy-rtbewGdzI-23" value="name.selector.js" style="rounded=0;whiteSpace=wrap;html=1;" parent="2" vertex="1">
                    <mxGeometry width="120" height="60" as="geometry"/>
                </mxCell>
                <mxCell id="PYiMBZbeEy-rtbewGdzI-24" value="name.selector.js" style="rounded=0;whiteSpace=wrap;html=1;" parent="2" vertex="1">
                    <mxGeometry x="10" y="10" width="120" height="60" as="geometry"/>
                </mxCell>
                <mxCell id="PYiMBZbeEy-rtbewGdzI-25" value="name.selector.js" style="rounded=0;whiteSpace=wrap;html=1;" parent="2" vertex="1">
                    <mxGeometry x="20" y="20" width="120" height="60" as="geometry"/>
                </mxCell>
                <mxCell id="5" value="" style="group" vertex="1" connectable="0" parent="1">
                    <mxGeometry x="547" y="705" width="220" height="157" as="geometry"/>
                </mxCell>
                <mxCell id="PYiMBZbeEy-rtbewGdzI-26" value="rules" style="shape=umlFrame;whiteSpace=wrap;html=1;width=74;height=31;" parent="5" vertex="1">
                    <mxGeometry width="220" height="157" as="geometry"/>
                </mxCell>
                <mxCell id="4" value="" style="group" vertex="1" connectable="0" parent="5">
                    <mxGeometry x="50" y="49" width="140" height="80" as="geometry"/>
                </mxCell>
                <mxCell id="PYiMBZbeEy-rtbewGdzI-27" value="name.rules.js" style="rounded=0;whiteSpace=wrap;html=1;" parent="4" vertex="1">
                    <mxGeometry width="120" height="60" as="geometry"/>
                </mxCell>
                <mxCell id="PYiMBZbeEy-rtbewGdzI-28" value="name.rules.js" style="rounded=0;whiteSpace=wrap;html=1;" parent="4" vertex="1">
                    <mxGeometry x="10" y="10" width="120" height="60" as="geometry"/>
                </mxCell>
                <mxCell id="PYiMBZbeEy-rtbewGdzI-29" value="name.rules.js" style="rounded=0;whiteSpace=wrap;html=1;" parent="4" vertex="1">
                    <mxGeometry x="20" y="20" width="120" height="60" as="geometry"/>
                </mxCell>
                <mxCell id="6" value="" style="group" vertex="1" connectable="0" parent="1">
                    <mxGeometry x="547" y="892" width="220" height="157" as="geometry"/>
                </mxCell>
                <mxCell id="7" value="modificators" style="shape=umlFrame;whiteSpace=wrap;html=1;width=74;height=31;" vertex="1" parent="6">
                    <mxGeometry width="220" height="157" as="geometry"/>
                </mxCell>
                <mxCell id="8" value="" style="group" vertex="1" connectable="0" parent="6">
                    <mxGeometry x="50" y="49" width="150" height="80" as="geometry"/>
                </mxCell>
                <mxCell id="9" value="name.rules.js" style="rounded=0;whiteSpace=wrap;html=1;" vertex="1" parent="8">
                    <mxGeometry width="120" height="60" as="geometry"/>
                </mxCell>
                <mxCell id="10" value="name.rules.js" style="rounded=0;whiteSpace=wrap;html=1;" vertex="1" parent="8">
                    <mxGeometry x="10" y="10" width="120" height="60" as="geometry"/>
                </mxCell>
                <mxCell id="11" value="name.modificator.yaml" style="rounded=0;whiteSpace=wrap;html=1;" vertex="1" parent="8">
                    <mxGeometry x="20" y="22" width="130" height="58" as="geometry"/>
                </mxCell>
                <mxCell id="15" value="" style="edgeStyle=orthogonalEdgeStyle;rounded=0;orthogonalLoop=1;jettySize=auto;html=1;" edge="1" parent="1" source="12" target="14">
                    <mxGeometry relative="1" as="geometry"/>
                </mxCell>
                <mxCell id="12" value="определение типа конфига из команды терминала" style="rounded=0;whiteSpace=wrap;html=1;" vertex="1" parent="1">
                    <mxGeometry x="185" y="581" width="120" height="60" as="geometry"/>
                </mxCell>
                <mxCell id="17" value="" style="edgeStyle=orthogonalEdgeStyle;rounded=0;orthogonalLoop=1;jettySize=auto;html=1;" edge="1" parent="1" source="14" target="16">
                    <mxGeometry relative="1" as="geometry"/>
                </mxCell>
                <mxCell id="14" value="импорт конфига" style="rounded=0;whiteSpace=wrap;html=1;" vertex="1" parent="1">
                    <mxGeometry x="185" y="689" width="120" height="60" as="geometry"/>
                </mxCell>
                <mxCell id="16" value="определение места выполнения" style="rounded=0;whiteSpace=wrap;html=1;" vertex="1" parent="1">
                    <mxGeometry x="185" y="797" width="120" height="60" as="geometry"/>
                </mxCell>
                <mxCell id="18" value=".migratorignore" style="rounded=0;whiteSpace=wrap;html=1;" vertex="1" parent="1">
                    <mxGeometry x="597" y="1085" width="120" height="60" as="geometry"/>
                </mxCell>
                <mxCell id="19" value="&lt;meta charset=&quot;utf-8&quot;&gt;&lt;div style=&quot;color: rgb(0, 0, 0); background-color: rgb(255, 255, 255); font-family: &amp;quot;droid sans mono&amp;quot;, monospace, monospace, &amp;quot;droid sans fallback&amp;quot;; font-weight: normal; font-size: 14px; line-height: 19px;&quot;&gt;&lt;div&gt;&lt;span style=&quot;color: #000000&quot;&gt;npx migrator --config &amp;lt;lib_name&amp;gt;&lt;/span&gt;&lt;/div&gt;&lt;/div&gt;" style="text;html=1;strokeColor=#666666;fillColor=#f5f5f5;align=center;verticalAlign=middle;whiteSpace=wrap;rounded=0;fontColor=#333333;" vertex="1" parent="1">
                    <mxGeometry x="-119" y="491" width="288" height="20" as="geometry"/>
                </mxCell>
                <mxCell id="20" value="&lt;div style=&quot;font-family: &amp;#34;droid sans mono&amp;#34; , monospace , monospace , &amp;#34;droid sans fallback&amp;#34; ; font-size: 14px ; line-height: 19px&quot;&gt;npx migrator --config &amp;lt;lib_name&amp;gt; --move 3.0.0:4.0.0&lt;/div&gt;" style="text;html=1;strokeColor=#666666;fillColor=#f5f5f5;align=center;verticalAlign=middle;whiteSpace=wrap;rounded=0;fontColor=#333333;" vertex="1" parent="1">
                    <mxGeometry x="-274" y="530" width="443" height="20" as="geometry"/>
                </mxCell>
                <mxCell id="21" value="&lt;meta charset=&quot;utf-8&quot;&gt;&lt;div style=&quot;color: rgb(0, 0, 0); background-color: rgb(255, 255, 255); font-family: &amp;quot;droid sans mono&amp;quot;, monospace, monospace, &amp;quot;droid sans fallback&amp;quot;; font-weight: normal; font-size: 14px; line-height: 19px;&quot;&gt;&lt;div&gt;&lt;span style=&quot;color: #000000&quot;&gt;npx migrator --config ./migrator-configs&lt;/span&gt;&lt;/div&gt;&lt;/div&gt;" style="text;html=1;strokeColor=#666666;fillColor=#f5f5f5;align=center;verticalAlign=middle;whiteSpace=wrap;rounded=0;fontColor=#333333;" vertex="1" parent="1">
                    <mxGeometry x="-187" y="569" width="356" height="20" as="geometry"/>
                </mxCell>
            </root>
        </mxGraphModel>
    </diagram>
</mxfile>